<svg width="160" height="160" viewBox="0 0 160 160" fill="none" xmlns="http://www.w3.org/2000/svg">
  <rect width="160" height="160" rx="36" fill="#0F172A"/>
  <path d="M42 56C42 49.3726 47.3726 44 54 44H106C112.627 44 118 49.3726 118 56V70C118 76.6274 112.627 82 106 82H54C47.3726 82 42 76.6274 42 70V56Z" fill="#38BDF8"/>
  <path d="M42 88C42 81.3726 47.3726 76 54 76H106C112.627 76 118 81.3726 118 88V102C118 108.627 112.627 114 106 114H54C47.3726 114 42 108.627 42 102V88Z" fill="#818CF8"/>
  <path d="M42 120C42 113.373 47.3726 108 54 108H106C112.627 108 118 113.373 118 120V134C118 140.627 112.627 146 106 146H54C47.3726 146 42 140.627 42 134V120Z" fill="#22C55E"/>
  <circle cx="80" cy="80" r="20" fill="white" fill-opacity="0.95"/>
  <path d="M80 66L88 80H72L80 66Z" fill="#0F172A"/>
</svg>
